<?xml version="1.0" encoding="UTF-8"?>
<svg version="1.1" xmlns="http://www.w3.org/2000/svg" width="20" height="20">
<path d="M0 0 C1.65 0 3.3 0 5 0 C5 0.99 5 1.98 5 3 C9.95 3 14.9 3 20 3 C19.125 10.875 19.125 10.875 18 12 C15.01110641 12.45765667 12.01030352 12.70320951 9 13 C11.97 13.33 14.94 13.66 18 14 C18.38218767 15.65614657 18.71395102 17.32457024 19 19 C18 20 18 20 15.625 20.0625 C14.75875 20.041875 13.8925 20.02125 13 20 C12.01 20 11.02 20 10 20 C8.33333333 20 6.66666667 20 5 20 C4.19632527 16.32605839 3.69885965 12.66663323 3.25390625 8.9375 C2.94746363 6.59910707 2.50386672 4.30339074 2 2 C1.34 2 0.68 2 0 2 C0 1.34 0 0.68 0 0 Z " fill="#9BA2AE" transform="translate(0,0)"/>
</svg>
