<svg width="12" height="13" viewBox="0 0 12 13" fill="none" xmlns="http://www.w3.org/2000/svg">
<path d="M9.33872 0.965904L8.38084 1.97763L10.586 4.30671L11.5432 3.29499C11.688 3.14207 11.8029 2.96052 11.8813 2.76071C11.9597 2.56089 12 2.34673 12 2.13045C12 1.91416 11.9597 1.7 11.8813 1.50018C11.8029 1.30037 11.688 1.11882 11.5432 0.965904C11.2461 0.666831 10.8514 0.5 10.441 0.5C10.0305 0.5 9.63584 0.666831 9.33872 0.965904Z" fill="#147BDE"/>
<path d="M9.70416 5.23808L7.49904 2.909L4.55243 6.01862C4.46525 6.11052 4.4058 6.22764 4.38156 6.3552L4.05353 8.10201C4.03335 8.20838 4.03836 8.31836 4.0681 8.42219C4.09784 8.52602 4.15141 8.62049 4.22403 8.69719C4.29666 8.7739 4.38609 8.83047 4.4844 8.86189C4.5827 8.8933 4.68683 8.89859 4.78754 8.87727L6.44138 8.52817C6.56192 8.50245 6.67258 8.43966 6.75943 8.3477L9.70416 5.23808Z" fill="#147BDE"/>
<path d="M4.55243 6.01862C4.46525 6.11052 4.4058 6.22764 4.38156 6.3552L4.05353 8.10201C4.03335 8.20838 4.03836 8.31836 4.0681 8.42219C4.09784 8.52602 4.15141 8.62049 4.22403 8.69719C4.29666 8.7739 4.38609 8.83047 4.4844 8.86189C4.5827 8.8933 4.68683 8.89859 4.78754 8.87727L6.44138 8.52817C6.56192 8.50245 6.67258 8.43966 6.75943 8.3477L9.70416 5.23808L7.49904 2.909L4.55243 6.01862Z" fill="#147BDE"/>
<path d="M7.35436 9.11703C7.18011 9.30076 6.9584 9.42609 6.71702 9.47733L4.51189 9.94302C4.31059 9.98548 4.10248 9.97482 3.90602 9.91196C3.70955 9.8491 3.53082 9.736 3.38566 9.58269C3.24051 9.42938 3.13343 9.24059 3.07392 9.03309C3.01441 8.82558 3.00431 8.60577 3.04452 8.39315L3.48542 6.06407C3.53393 5.80911 3.65259 5.57494 3.82654 5.3909L6.89475 2.15021C6.87768 2.0888 6.86887 2.02517 6.86856 1.96117H1.35139C0.993077 1.96152 0.649539 2.11201 0.396176 2.37962C0.142814 2.64722 0.000330238 3.01007 0 3.38852V11.0726C0.000330238 11.4511 0.142814 11.8139 0.396176 12.0816C0.649539 12.3492 0.993077 12.4997 1.35139 12.5H8.62654C8.98485 12.4997 9.32839 12.3492 9.58175 12.0816C9.83512 11.8139 9.9776 11.4511 9.97793 11.0726V6.34598L7.35436 9.11703Z" fill="#147BDE"/>
</svg>
