<svg width="12" height="12" viewBox="0 0 12 12" fill="none" xmlns="http://www.w3.org/2000/svg">
<path d="M3 12H9C9.15913 12 9.31174 11.9368 9.42426 11.8243C9.53679 11.7117 9.6 11.5591 9.6 11.4V8.4H2.4V11.4C2.4 11.5591 2.46321 11.7117 2.57574 11.8243C2.68826 11.9368 2.84087 12 3 12Z" fill="white"/>
<path d="M10.8 4.2H1.2C0.88174 4.2 0.576515 4.32643 0.351472 4.55147C0.126428 4.77652 0 5.08174 0 5.4V9C0 9.31826 0.126428 9.62348 0.351472 9.84853C0.576515 10.0736 0.88174 10.2 1.2 10.2V8.4C1.2 8.08174 1.32643 7.77652 1.55147 7.55147C1.77652 7.32643 2.08174 7.2 2.4 7.2H9.6C9.91826 7.2 10.2235 7.32643 10.4485 7.55147C10.6736 7.77652 10.8 8.08174 10.8 8.4V10.2C11.1183 10.2 11.4235 10.0736 11.6485 9.84853C11.8736 9.62348 12 9.31826 12 9V5.4C12 5.08174 11.8736 4.77652 11.6485 4.55147C11.4235 4.32643 11.1183 4.2 10.8 4.2Z" fill="white"/>
<path d="M10.2 3V1.2C10.2 0.88174 10.0736 0.576515 9.84853 0.351472C9.62348 0.126428 9.31826 0 9 0H3C2.68174 0 2.37652 0.126428 2.15147 0.351472C1.92643 0.576515 1.8 0.88174 1.8 1.2V3H10.2Z" fill="white"/>
</svg>
