<svg width="12" height="13" viewBox="0 0 12 13" fill="none" xmlns="http://www.w3.org/2000/svg">
<path d="M10.2778 1.1H8.27456C8.16814 0.918175 8.01489 0.767025 7.83018 0.661714C7.64548 0.556402 7.43581 0.500632 7.22222 0.5H4.77778C4.56419 0.500632 4.35452 0.556402 4.16982 0.661714C3.98511 0.767025 3.83186 0.918175 3.72544 1.1H1.72222C1.39807 1.1 1.08719 1.22643 0.857981 1.45147C0.628769 1.67652 0.5 1.98174 0.5 2.3V11.3C0.5 11.6183 0.628769 11.9235 0.857981 12.1485C1.08719 12.3736 1.39807 12.5 1.72222 12.5H10.2778C10.6019 12.5 10.9128 12.3736 11.142 12.1485C11.3712 11.9235 11.5 11.6183 11.5 11.3V2.3C11.5 1.98174 11.3712 1.67652 11.142 1.45147C10.9128 1.22643 10.6019 1.1 10.2778 1.1ZM4.77778 1.7H7.22222V2.9H4.77778V1.7ZM3.55556 9.5C3.43469 9.5 3.31654 9.46481 3.21604 9.39888C3.11554 9.33295 3.03722 9.23925 2.99096 9.12961C2.94471 9.01997 2.93261 8.89933 2.95619 8.78295C2.97977 8.66656 3.03797 8.55965 3.12343 8.47574C3.2089 8.39182 3.31779 8.33468 3.43633 8.31153C3.55488 8.28838 3.67775 8.30026 3.78942 8.34567C3.90108 8.39109 3.99653 8.46799 4.06368 8.56666C4.13083 8.66533 4.16667 8.78133 4.16667 8.9C4.16667 9.05913 4.10228 9.21174 3.98768 9.32426C3.87307 9.43679 3.71763 9.5 3.55556 9.5ZM3.55556 7.1C3.43469 7.1 3.31654 7.06481 3.21604 6.99888C3.11554 6.93295 3.03722 6.83925 2.99096 6.72961C2.94471 6.61997 2.93261 6.49933 2.95619 6.38295C2.97977 6.26656 3.03797 6.15965 3.12343 6.07574C3.2089 5.99182 3.31779 5.93468 3.43633 5.91153C3.55488 5.88838 3.67775 5.90026 3.78942 5.94567C3.90108 5.99109 3.99653 6.06799 4.06368 6.16666C4.13083 6.26533 4.16667 6.38133 4.16667 6.5C4.16667 6.65913 4.10228 6.81174 3.98768 6.92426C3.87307 7.03679 3.71763 7.1 3.55556 7.1ZM8.44444 9.5H5.38889C5.22681 9.5 5.07137 9.43679 4.95677 9.32426C4.84216 9.21174 4.77778 9.05913 4.77778 8.9C4.77778 8.74087 4.84216 8.58826 4.95677 8.47574C5.07137 8.36321 5.22681 8.3 5.38889 8.3H8.44444C8.60652 8.3 8.76196 8.36321 8.87657 8.47574C8.99117 8.58826 9.05556 8.74087 9.05556 8.9C9.05556 9.05913 8.99117 9.21174 8.87657 9.32426C8.76196 9.43679 8.60652 9.5 8.44444 9.5ZM8.44444 7.1H5.38889C5.22681 7.1 5.07137 7.03679 4.95677 6.92426C4.84216 6.81174 4.77778 6.65913 4.77778 6.5C4.77778 6.34087 4.84216 6.18826 4.95677 6.07574C5.07137 5.96321 5.22681 5.9 5.38889 5.9H8.44444C8.60652 5.9 8.76196 5.96321 8.87657 6.07574C8.99117 6.18826 9.05556 6.34087 9.05556 6.5C9.05556 6.65913 8.99117 6.81174 8.87657 6.92426C8.76196 7.03679 8.60652 7.1 8.44444 7.1Z" fill="#147BDE"/>
</svg>
