<svg width="10" height="11" viewBox="0 0 10 11" fill="none" xmlns="http://www.w3.org/2000/svg">
<path fill-rule="evenodd" clip-rule="evenodd" d="M4.99995 10.3002C6.27299 10.3002 7.49389 9.79448 8.39406 8.89431C9.29424 7.99413 9.79995 6.77323 9.79995 5.5002C9.79995 4.22716 9.29424 3.00626 8.39406 2.10608C7.49389 1.20591 6.27299 0.700195 4.99995 0.700195C3.72691 0.700195 2.50601 1.20591 1.60584 2.10608C0.705664 3.00626 0.199951 4.22716 0.199951 5.5002C0.199951 6.77323 0.705664 7.99413 1.60584 8.89431C2.50601 9.79448 3.72691 10.3002 4.99995 10.3002ZM5.59995 3.7002C5.59995 3.54107 5.53674 3.38845 5.42422 3.27593C5.31169 3.16341 5.15908 3.1002 4.99995 3.1002C4.84082 3.1002 4.68821 3.16341 4.57569 3.27593C4.46317 3.38845 4.39995 3.54107 4.39995 3.7002V4.9002H3.19995C3.04082 4.9002 2.88821 4.96341 2.77569 5.07593C2.66317 5.18845 2.59995 5.34107 2.59995 5.5002C2.59995 5.65933 2.66317 5.81194 2.77569 5.92446C2.88821 6.03698 3.04082 6.1002 3.19995 6.1002H4.39995V7.3002C4.39995 7.45933 4.46317 7.61194 4.57569 7.72446C4.68821 7.83698 4.84082 7.9002 4.99995 7.9002C5.15908 7.9002 5.31169 7.83698 5.42422 7.72446C5.53674 7.61194 5.59995 7.45933 5.59995 7.3002V6.1002H6.79995C6.95908 6.1002 7.11169 6.03698 7.22422 5.92446C7.33674 5.81194 7.39995 5.65933 7.39995 5.5002C7.39995 5.34107 7.33674 5.18845 7.22422 5.07593C7.11169 4.96341 6.95908 4.9002 6.79995 4.9002H5.59995V3.7002Z" fill="white"/>
</svg>
